<mxfile host="app.diagrams.net" modified="2023-07-24T10:55:26.109Z" agent="Mozilla/5.0 (Windows NT 10.0; Win64; x64) AppleWebKit/537.36 (KHTML, like Gecko) Chrome/114.0.0.0 Safari/537.36" etag="9KgVmVKY3u2OxAmZz_Cy" version="21.6.5" type="github">
  <diagram name="페이지-1" id="uhtpTnAYW17Pt8Ob1MO2">
    <mxGraphModel dx="1434" dy="756" grid="1" gridSize="10" guides="1" tooltips="1" connect="1" arrows="1" fold="1" page="1" pageScale="1" pageWidth="827" pageHeight="1169" math="0" shadow="0">
      <root>
        <mxCell id="0" />
        <mxCell id="1" parent="0" />
        <mxCell id="7MxWJE5JX8320T1vLijx-1" value="이름" style="whiteSpace=wrap;html=1;align=center;perimeterSpacing=0;rounded=1;arcSize=200;absoluteArcSize=0;" vertex="1" parent="1">
          <mxGeometry x="310" y="160" width="100" height="40" as="geometry" />
        </mxCell>
        <mxCell id="7MxWJE5JX8320T1vLijx-2" value="학과이름" style="whiteSpace=wrap;html=1;align=center;perimeterSpacing=0;rounded=1;arcSize=200;absoluteArcSize=0;" vertex="1" parent="1">
          <mxGeometry x="440" y="160" width="100" height="40" as="geometry" />
        </mxCell>
        <mxCell id="7MxWJE5JX8320T1vLijx-3" value="학번" style="whiteSpace=wrap;html=1;align=center;perimeterSpacing=0;rounded=1;arcSize=200;absoluteArcSize=0;" vertex="1" parent="1">
          <mxGeometry x="180" y="160" width="100" height="40" as="geometry" />
        </mxCell>
        <mxCell id="7MxWJE5JX8320T1vLijx-4" value="연락처" style="whiteSpace=wrap;html=1;align=center;perimeterSpacing=0;rounded=1;arcSize=200;absoluteArcSize=0;" vertex="1" parent="1">
          <mxGeometry x="570" y="160" width="100" height="40" as="geometry" />
        </mxCell>
        <mxCell id="7MxWJE5JX8320T1vLijx-5" value="교수번호" style="whiteSpace=wrap;html=1;align=center;perimeterSpacing=0;rounded=1;arcSize=200;absoluteArcSize=0;" vertex="1" parent="1">
          <mxGeometry x="240" y="560" width="100" height="40" as="geometry" />
        </mxCell>
        <mxCell id="7MxWJE5JX8320T1vLijx-6" value="교수명" style="whiteSpace=wrap;html=1;align=center;perimeterSpacing=0;rounded=1;arcSize=200;absoluteArcSize=0;" vertex="1" parent="1">
          <mxGeometry x="370" y="560" width="100" height="40" as="geometry" />
        </mxCell>
        <mxCell id="7MxWJE5JX8320T1vLijx-8" value="학과이름" style="whiteSpace=wrap;html=1;align=center;perimeterSpacing=0;rounded=1;arcSize=200;absoluteArcSize=0;" vertex="1" parent="1">
          <mxGeometry x="500" y="560" width="100" height="40" as="geometry" />
        </mxCell>
        <mxCell id="7MxWJE5JX8320T1vLijx-9" value="학생" style="whiteSpace=wrap;html=1;align=center;" vertex="1" parent="1">
          <mxGeometry x="370" y="240" width="100" height="40" as="geometry" />
        </mxCell>
        <mxCell id="7MxWJE5JX8320T1vLijx-10" value="교수" style="whiteSpace=wrap;html=1;align=center;" vertex="1" parent="1">
          <mxGeometry x="370" y="480" width="100" height="40" as="geometry" />
        </mxCell>
        <mxCell id="7MxWJE5JX8320T1vLijx-16" value="" style="endArrow=none;html=1;rounded=0;exitX=0.5;exitY=1;exitDx=0;exitDy=0;entryX=0;entryY=0.25;entryDx=0;entryDy=0;" edge="1" parent="1" source="7MxWJE5JX8320T1vLijx-3" target="7MxWJE5JX8320T1vLijx-9">
          <mxGeometry relative="1" as="geometry">
            <mxPoint x="330" y="390" as="sourcePoint" />
            <mxPoint x="490" y="390" as="targetPoint" />
          </mxGeometry>
        </mxCell>
        <mxCell id="7MxWJE5JX8320T1vLijx-19" value="" style="edgeStyle=entityRelationEdgeStyle;fontSize=12;html=1;endArrow=ERoneToMany;startArrow=ERzeroToMany;rounded=0;entryX=1;entryY=0.5;entryDx=0;entryDy=0;startFill=0;endFill=0;" edge="1" parent="1" target="7MxWJE5JX8320T1vLijx-10">
          <mxGeometry width="100" height="100" relative="1" as="geometry">
            <mxPoint x="470" y="260" as="sourcePoint" />
            <mxPoint x="590" y="480" as="targetPoint" />
          </mxGeometry>
        </mxCell>
        <mxCell id="7MxWJE5JX8320T1vLijx-21" value="" style="endArrow=none;html=1;rounded=0;" edge="1" parent="1">
          <mxGeometry relative="1" as="geometry">
            <mxPoint x="480" y="250" as="sourcePoint" />
            <mxPoint x="480" y="270" as="targetPoint" />
          </mxGeometry>
        </mxCell>
        <mxCell id="7MxWJE5JX8320T1vLijx-22" value="" style="endArrow=none;html=1;rounded=0;exitX=0.43;exitY=1;exitDx=0;exitDy=0;entryX=0.25;entryY=0;entryDx=0;entryDy=0;exitPerimeter=0;" edge="1" parent="1" source="7MxWJE5JX8320T1vLijx-1" target="7MxWJE5JX8320T1vLijx-9">
          <mxGeometry relative="1" as="geometry">
            <mxPoint x="280" y="200" as="sourcePoint" />
            <mxPoint x="420" y="240" as="targetPoint" />
          </mxGeometry>
        </mxCell>
        <mxCell id="7MxWJE5JX8320T1vLijx-23" value="" style="endArrow=none;html=1;rounded=0;exitX=0.5;exitY=1;exitDx=0;exitDy=0;entryX=0.75;entryY=0;entryDx=0;entryDy=0;" edge="1" parent="1" source="7MxWJE5JX8320T1vLijx-2" target="7MxWJE5JX8320T1vLijx-9">
          <mxGeometry relative="1" as="geometry">
            <mxPoint x="410" y="200" as="sourcePoint" />
            <mxPoint x="477" y="240" as="targetPoint" />
          </mxGeometry>
        </mxCell>
        <mxCell id="7MxWJE5JX8320T1vLijx-24" value="" style="endArrow=none;html=1;rounded=0;exitX=0.5;exitY=1;exitDx=0;exitDy=0;entryX=1;entryY=0.25;entryDx=0;entryDy=0;" edge="1" parent="1" source="7MxWJE5JX8320T1vLijx-4" target="7MxWJE5JX8320T1vLijx-9">
          <mxGeometry relative="1" as="geometry">
            <mxPoint x="530" y="200" as="sourcePoint" />
            <mxPoint x="470" y="240" as="targetPoint" />
          </mxGeometry>
        </mxCell>
        <mxCell id="7MxWJE5JX8320T1vLijx-25" value="" style="endArrow=none;html=1;rounded=0;exitX=0.5;exitY=0;exitDx=0;exitDy=0;entryX=0.75;entryY=1;entryDx=0;entryDy=0;" edge="1" parent="1" source="7MxWJE5JX8320T1vLijx-8" target="7MxWJE5JX8320T1vLijx-10">
          <mxGeometry relative="1" as="geometry">
            <mxPoint x="620" y="500" as="sourcePoint" />
            <mxPoint x="470" y="550" as="targetPoint" />
          </mxGeometry>
        </mxCell>
        <mxCell id="7MxWJE5JX8320T1vLijx-26" value="" style="endArrow=none;html=1;rounded=0;exitX=0.25;exitY=1;exitDx=0;exitDy=0;entryX=0.5;entryY=0;entryDx=0;entryDy=0;" edge="1" parent="1" source="7MxWJE5JX8320T1vLijx-10" target="7MxWJE5JX8320T1vLijx-5">
          <mxGeometry relative="1" as="geometry">
            <mxPoint x="400" y="560" as="sourcePoint" />
            <mxPoint x="320" y="520" as="targetPoint" />
          </mxGeometry>
        </mxCell>
        <mxCell id="7MxWJE5JX8320T1vLijx-27" value="" style="endArrow=none;html=1;rounded=0;exitX=0.5;exitY=0;exitDx=0;exitDy=0;entryX=0.75;entryY=1;entryDx=0;entryDy=0;" edge="1" parent="1" source="7MxWJE5JX8320T1vLijx-6">
          <mxGeometry relative="1" as="geometry">
            <mxPoint x="525" y="560" as="sourcePoint" />
            <mxPoint x="420" y="520" as="targetPoint" />
          </mxGeometry>
        </mxCell>
      </root>
    </mxGraphModel>
  </diagram>
</mxfile>
